<?xml version="1.0" encoding="UTF-8"?> <svg xmlns="http://www.w3.org/2000/svg" width="16" height="16" viewBox="0 0 16 16" fill="none"><path d="M8.64062 2.07812L14.3906 7.45312C14.4635 7.52604 14.5208 7.60938 14.5625 7.70312C14.6042 7.79688 14.625 7.89583 14.625 8C14.625 8.10417 14.6042 8.20312 14.5625 8.29688C14.5208 8.39062 14.4635 8.47396 14.3906 8.54688L8.64062 13.9219C8.56771 13.9948 8.48438 14.0469 8.39062 14.0781C8.30729 14.1094 8.21875 14.125 8.125 14.125C8.02083 14.125 7.92188 14.1042 7.82812 14.0625C7.73438 14.0208 7.65104 13.9635 7.57812 13.8906C7.50521 13.8177 7.45312 13.7396 7.42188 13.6562C7.39062 13.5625 7.375 13.4688 7.375 13.375C7.375 13.2708 7.39583 13.1719 7.4375 13.0781C7.47917 12.9844 7.53646 12.901 7.60938 12.8281L11.9688 8.75H2.125C2.03125 8.75 1.9375 8.73438 1.84375 8.70312C1.76042 8.66146 1.6875 8.61458 1.625 8.5625C1.55208 8.48958 1.48958 8.40625 1.4375 8.3125C1.39583 8.21875 1.375 8.11458 1.375 8C1.375 7.88542 1.39583 7.78125 1.4375 7.6875C1.48958 7.59375 1.55208 7.51042 1.625 7.4375C1.6875 7.38542 1.76042 7.34375 1.84375 7.3125C1.9375 7.27083 2.03125 7.25 2.125 7.25H11.9688L7.60938 3.17188C7.53646 3.09896 7.47917 3.01562 7.4375 2.92188C7.39583 2.82812 7.375 2.72917 7.375 2.625C7.375 2.53125 7.39062 2.44271 7.42188 2.35938C7.45312 2.26562 7.50521 2.18229 7.57812 2.10938C7.65104 2.03646 7.73438 1.97917 7.82812 1.9375C7.92188 1.89583 8.02083 1.875 8.125 1.875C8.21875 1.875 8.30729 1.89062 8.39062 1.92188C8.48438 1.95312 8.56771 2.00521 8.64062 2.07812Z" fill="white"></path></svg> 