<?xml version="1.0" encoding="UTF-8"?> <svg xmlns="http://www.w3.org/2000/svg" width="230" height="40" viewBox="0 0 230 40" fill="none"><path fill-rule="evenodd" clip-rule="evenodd" d="M126.242 31.48C124.695 31.48 123.309 31.1226 122.082 30.408C120.855 29.6826 119.89 28.6746 119.186 27.384C118.482 26.0826 118.13 24.568 118.13 22.84C118.13 21.6133 118.333 20.4773 118.738 19.432C119.143 18.3866 119.709 17.4746 120.434 16.696C121.17 15.9066 122.039 15.2933 123.042 14.856C124.045 14.4186 125.143 14.2 126.338 14.2C127.586 14.2 128.711 14.4453 129.714 14.936C130.221 15.1843 130.696 15.4941 131.138 15.8654V8.64795L136.386 7.75195V31H131.858V29.1133C131.426 29.6454 130.882 30.1089 130.226 30.504C129.127 31.1546 127.799 31.48 126.242 31.48ZM127.218 26.968C127.965 26.968 128.637 26.8026 129.234 26.472C129.831 26.1306 130.301 25.6506 130.642 25.032C130.983 24.4133 131.154 23.6826 131.154 22.84C131.154 21.9866 130.983 21.256 130.642 20.648C130.311 20.0293 129.847 19.5546 129.25 19.224C128.653 18.8826 127.975 18.712 127.218 18.712C126.461 18.712 125.783 18.8826 125.186 19.224C124.589 19.5546 124.119 20.0293 123.778 20.648C123.437 21.256 123.266 21.9866 123.266 22.84C123.266 23.6826 123.437 24.4133 123.778 25.032C124.13 25.6506 124.605 26.1306 125.202 26.472C125.799 26.8026 126.471 26.968 127.218 26.968Z" fill="#333333"></path><path d="M52.2639 31L45.4639 8.59995H50.9519L54.8239 23.08L58.9999 8.59995H64.3119L68.4879 23.064L72.3599 8.59995H77.7199L70.9199 31H65.6879L61.5759 16.456L57.4479 31H52.2639Z" fill="#333333"></path><path fill-rule="evenodd" clip-rule="evenodd" d="M87.0304 31.48C85.249 31.48 83.6757 31.0906 82.3104 30.312C80.945 29.5226 79.873 28.472 79.0944 27.16C78.3264 25.848 77.9424 24.408 77.9424 22.84C77.9424 21.6986 78.161 20.6106 78.5984 19.576C79.0464 18.5306 79.6757 17.608 80.4864 16.808C81.297 15.9973 82.257 15.3626 83.3664 14.904C84.4757 14.4346 85.697 14.2 87.0304 14.2C88.8117 14.2 90.385 14.5946 91.7504 15.384C93.1157 16.1626 94.1824 17.208 94.9504 18.52C95.7184 19.832 96.1024 21.272 96.1024 22.84C96.1024 23.9813 95.8837 25.0746 95.4464 26.12C95.009 27.1546 94.385 28.072 93.5744 28.872C92.7637 29.672 91.8037 30.3066 90.6944 30.776C89.585 31.2453 88.3637 31.48 87.0304 31.48ZM87.0304 26.968C87.777 26.968 88.449 26.8026 89.0464 26.472C89.6437 26.1306 90.113 25.6506 90.4544 25.032C90.7957 24.4133 90.9664 23.6826 90.9664 22.84C90.9664 21.9866 90.7957 21.256 90.4544 20.648C90.1237 20.0293 89.6597 19.5546 89.0624 19.224C88.465 18.8826 87.7877 18.712 87.0304 18.712C86.273 18.712 85.5957 18.8826 84.9984 19.224C84.401 19.5546 83.9317 20.0293 83.5904 20.648C83.249 21.256 83.0784 21.9866 83.0784 22.84C83.0784 23.6826 83.249 24.4133 83.5904 25.032C83.9424 25.6506 84.417 26.1306 85.0144 26.472C85.6117 26.8026 86.2837 26.968 87.0304 26.968Z" fill="#333333"></path><path fill-rule="evenodd" clip-rule="evenodd" d="M102.404 30.312C103.769 31.0906 105.343 31.48 107.124 31.48C108.457 31.48 109.679 31.2453 110.788 30.776C111.897 30.3066 112.857 29.672 113.668 28.872C114.479 28.072 115.103 27.1546 115.54 26.12C115.977 25.0746 116.196 23.9813 116.196 22.84C116.196 21.272 115.812 19.832 115.044 18.52C114.276 17.208 113.209 16.1626 111.844 15.384C110.479 14.5946 108.905 14.2 107.124 14.2C105.791 14.2 104.569 14.4346 103.46 14.904C102.351 15.3626 101.391 15.9973 100.58 16.808C99.7695 17.608 99.1401 18.5306 98.6921 19.576C98.2548 20.6106 98.0361 21.6986 98.0361 22.84C98.0361 24.408 98.4201 25.848 99.1881 27.16C99.9668 28.472 101.039 29.5226 102.404 30.312ZM109.14 26.472C108.543 26.8026 107.871 26.968 107.124 26.968C106.377 26.968 105.705 26.8026 105.108 26.472C104.511 26.1306 104.036 25.6506 103.684 25.032C103.343 24.4133 103.172 23.6826 103.172 22.84C103.172 21.9866 103.343 21.256 103.684 20.648C104.025 20.0293 104.495 19.5546 105.092 19.224C105.689 18.8826 106.367 18.712 107.124 18.712C107.881 18.712 108.559 18.8826 109.156 19.224C109.753 19.5546 110.217 20.0293 110.548 20.648C110.889 21.256 111.06 21.9866 111.06 22.84C111.06 23.6826 110.889 24.4133 110.548 25.032C110.207 25.6506 109.737 26.1306 109.14 26.472Z" fill="#333333"></path><path d="M153.74 20.9381L146.306 8.59995H141.202V31H146.066L145.982 17.2392L151.778 26.776H155.314L160.822 17.3553L160.738 31H165.89V8.59995H160.802L153.74 20.9381Z" fill="#333333"></path><path fill-rule="evenodd" clip-rule="evenodd" d="M177.475 31.48C175.939 31.48 174.563 31.1226 173.347 30.408C172.131 29.6826 171.171 28.6746 170.467 27.384C169.763 26.0826 169.411 24.568 169.411 22.84C169.411 21.5386 169.614 20.36 170.019 19.304C170.424 18.2373 170.99 17.3253 171.715 16.568C172.44 15.8106 173.294 15.2293 174.275 14.824C175.256 14.408 176.323 14.2 177.475 14.2C178.99 14.2 180.28 14.5306 181.347 15.192C181.845 15.496 182.277 15.8477 182.643 16.2471V15.352L187.427 14.392V31H182.915V29.0979C182.498 29.6352 181.975 30.0986 181.347 30.488C180.28 31.1493 178.99 31.48 177.475 31.48ZM178.371 26.968C179.096 26.968 179.747 26.8026 180.323 26.472C180.91 26.1306 181.374 25.6506 181.715 25.032C182.056 24.4133 182.227 23.6826 182.227 22.84C182.227 21.9866 182.056 21.256 181.715 20.648C181.374 20.0293 180.91 19.5546 180.323 19.224C179.747 18.8826 179.096 18.712 178.371 18.712C177.646 18.712 176.995 18.8826 176.419 19.224C175.843 19.5546 175.384 20.0293 175.043 20.648C174.702 21.256 174.531 21.9866 174.531 22.84C174.531 23.6826 174.702 24.4133 175.043 25.032C175.384 25.6506 175.843 26.1306 176.419 26.472C176.995 26.8026 177.646 26.968 178.371 26.968Z" fill="#333333"></path><path d="M197.018 14.392L191.77 15.288V31H197.018V22.696C197.018 21.5973 197.338 20.7653 197.978 20.2C198.628 19.624 199.45 19.336 200.442 19.336C200.847 19.336 201.252 19.3786 201.658 19.464C202.063 19.5386 202.447 19.64 202.81 19.768L203.226 14.36C202.98 14.3066 202.724 14.264 202.458 14.232C202.191 14.1893 201.898 14.168 201.578 14.168C200.639 14.168 199.764 14.36 198.954 14.744C198.154 15.128 197.508 15.7413 197.018 16.584V14.392Z" fill="#333333"></path><path d="M213.391 31.48C211.578 31.48 210.154 30.9733 209.119 29.96C208.084 28.936 207.567 27.4106 207.567 25.384V18.84H204.271V15.656L207.567 14.7122V10.008H212.815V14.68H216.639V18.84H212.815V24.472C212.815 25.3466 213.007 25.96 213.391 26.312C213.775 26.664 214.266 26.84 214.863 26.84C215.204 26.84 215.535 26.8026 215.855 26.728C216.175 26.6426 216.479 26.52 216.767 26.36L217.215 30.584C216.724 30.84 216.148 31.0533 215.487 31.224C214.826 31.3946 214.127 31.48 213.391 31.48Z" fill="#333333"></path><path d="M220.726 30.648C221.377 31.2026 222.139 31.48 223.014 31.48C223.601 31.48 224.139 31.352 224.63 31.096C225.121 30.8506 225.515 30.4986 225.814 30.04C226.113 29.5813 226.262 29.032 226.262 28.392C226.262 27.432 225.942 26.6746 225.302 26.12C224.662 25.5653 223.899 25.288 223.014 25.288C222.427 25.288 221.883 25.416 221.382 25.672C220.891 25.928 220.497 26.2853 220.198 26.744C219.91 27.2026 219.766 27.752 219.766 28.392C219.766 29.3413 220.086 30.0933 220.726 30.648Z" fill="#333333"></path><g clip-path="url(#clip0_15419_150371)"><path fill-rule="evenodd" clip-rule="evenodd" d="M34.1718 30.7481C36.5647 27.8191 38 24.0772 38 20C38 10.6112 30.3888 3 21 3C11.6112 3 4 10.6112 4 20C4 24.0772 5.43531 27.8191 7.82823 30.7481C6.74055 29.1243 6.125 27.2749 6.125 25.3125C6.125 18.8577 12.7848 13.625 21 13.625C29.2152 13.625 35.875 18.8577 35.875 25.3125C35.875 27.2749 35.2594 29.1244 34.1718 30.7481Z" fill="url(#paint0_linear_15419_150371)"></path><path fill-rule="evenodd" clip-rule="evenodd" d="M5.10496 26.033C6.44509 29.5698 8.96805 32.6838 12.499 34.7224C20.63 39.4168 31.027 36.6309 35.7214 28.5C40.4159 20.369 37.63 9.97195 29.499 5.27753C25.9681 3.23893 22.0098 2.61098 18.2767 3.21881C20.2268 3.08874 22.1363 3.48038 23.8357 4.46158C29.4258 7.68899 30.6275 16.0729 26.5199 23.1875C22.4123 30.3021 14.5508 33.4532 8.96074 30.2258C7.26125 29.2446 5.96736 27.7868 5.10496 26.033Z" fill="url(#paint1_linear_15419_150371)"></path><path fill-rule="evenodd" clip-rule="evenodd" d="M23.7223 3.21889C19.9892 2.61106 16.031 3.23902 12.5 5.27761C4.36904 9.97203 1.58317 20.3691 6.27759 28.5C10.972 36.631 21.369 39.4169 29.5 34.7225C33.031 32.6839 35.5539 29.5699 36.8941 26.0331C36.0317 27.7869 34.7378 29.2447 33.0383 30.2259C27.4482 33.4533 19.5867 30.3021 15.4791 23.1875C11.3715 16.0729 12.5732 7.68908 18.1633 4.46166C19.8628 3.48046 21.7722 3.08882 23.7223 3.21889Z" fill="url(#paint2_linear_15419_150371)"></path></g><defs><linearGradient id="paint0_linear_15419_150371" x1="38" y1="18.2876" x2="4" y2="18.2876" gradientUnits="userSpaceOnUse"><stop offset="0.110831" stop-color="#88AD99"></stop><stop offset="0.723123" stop-color="#88AD99" stop-opacity="0"></stop></linearGradient><linearGradient id="paint1_linear_15419_150371" x1="13.982" y1="35.5786" x2="30.982" y2="6.13371" gradientUnits="userSpaceOnUse"><stop offset="0.110831" stop-color="#88AD99"></stop><stop offset="0.723123" stop-color="#88AD99" stop-opacity="0"></stop></linearGradient><linearGradient id="paint2_linear_15419_150371" x1="11.0171" y1="6.1338" x2="28.0171" y2="35.5787" gradientUnits="userSpaceOnUse"><stop offset="0.110831" stop-color="#88AD99"></stop><stop offset="0.723123" stop-color="#88AD99" stop-opacity="0"></stop></linearGradient><clipPath id="clip0_15419_150371"><rect width="34" height="34" fill="white" transform="translate(4 3)"></rect></clipPath></defs></svg> 