<?xml version="1.0" encoding="UTF-8"?> <svg xmlns="http://www.w3.org/2000/svg" width="64" height="64" viewBox="0 0 64 64" fill="none"><rect width="64" height="64" rx="32" fill="#F7F7F7"></rect><path d="M45.2711 29.1555H43.84L45.9378 24.8444C46.25 24.1969 46.3062 23.4554 46.0952 22.7682C45.8843 22.0809 45.4217 21.4987 44.8 21.1378C44.1679 20.7126 43.3944 20.5518 42.6452 20.6897C41.896 20.8276 41.2305 21.2532 40.7911 21.8755L35.5556 29.5733C35.4613 29.7159 35.4072 29.8812 35.399 30.0519C35.3907 30.2226 35.4286 30.3923 35.5087 30.5433C35.5887 30.6943 35.7079 30.8209 35.8538 30.9099C35.9997 30.9989 36.1669 31.0469 36.3378 31.0489H44.1245L43.2356 36.2755C43.0414 37.4649 42.4304 38.5463 41.5119 39.3264C40.5934 40.1065 39.4273 40.5343 38.2222 40.5333C37.8191 40.5333 37.4325 40.6935 37.1474 40.9785C36.8624 41.2636 36.7022 41.6502 36.7022 42.0533V42.9422C36.7022 43.0672 36.6526 43.187 36.5643 43.2753C36.4759 43.3637 36.3561 43.4133 36.2311 43.4133H27.7334C27.6084 43.4133 27.4886 43.3637 27.4002 43.2753C27.3119 43.187 27.2622 43.0672 27.2622 42.9422V41.5733C27.2622 40.6844 26.4356 40.5333 25.7422 40.5333C24.537 40.5368 23.3698 40.1111 22.4496 39.3327C21.5294 38.5542 20.9163 37.4736 20.72 36.2844L19.8311 31.0578H32.9511V29.1555H25.7778C26.1177 28.5822 26.2987 27.9287 26.3022 27.2622C27.5581 27.2599 28.7618 26.76 29.6498 25.872C30.5378 24.984 31.0377 23.7803 31.04 22.5244V21.5733C31.0401 21.3241 30.9423 21.0849 30.7678 20.907C30.5932 20.7291 30.3558 20.6269 30.1067 20.6222H29.1556C28.5275 20.6203 27.9053 20.7435 27.3254 20.9846C26.7454 21.2257 26.2193 21.58 25.7778 22.0267C25.3212 21.0435 24.5936 20.211 23.6804 19.6268C22.7672 19.0427 21.7063 18.7312 20.6222 18.7289H18.7289C18.4782 18.7289 18.2376 18.8279 18.0595 19.0043C17.8814 19.1808 17.7801 19.4204 17.7778 19.6711V21.5733C17.776 22.3217 17.9227 23.063 18.2096 23.7542C18.4965 24.4454 18.9177 25.0728 19.4489 25.6C20.518 26.6601 21.9611 27.2572 23.4667 27.2622H24.4178C24.4155 27.7652 24.214 28.2467 23.8575 28.6015C23.501 28.9564 23.0185 29.1556 22.5156 29.1555H18.7289C18.5937 29.1545 18.4598 29.1824 18.3361 29.2373C18.2125 29.2921 18.102 29.3727 18.012 29.4736C17.922 29.5746 17.8545 29.6936 17.8141 29.8227C17.7738 29.9518 17.7614 30.088 17.7778 30.2222L18.8445 36.5955C19.1005 38.1658 19.8867 39.601 21.0723 40.662C22.2578 41.723 23.7711 42.3458 25.36 42.4267V42.9067C25.36 43.5361 25.6101 44.1398 26.0552 44.5849C26.5002 45.0299 27.1039 45.28 27.7334 45.28H36.2667C36.8961 45.28 37.4998 45.0299 37.9449 44.5849C38.39 44.1398 38.64 43.5361 38.64 42.9067V42.4267C40.229 42.3458 41.7422 41.723 42.9278 40.662C44.1133 39.601 44.8996 38.1658 45.1556 36.5955L46.2222 30.2222C46.244 30.0868 46.2363 29.9482 46.1995 29.816C46.1627 29.6838 46.0977 29.5612 46.0091 29.4565C45.9204 29.3518 45.8101 29.2675 45.6858 29.2094C45.5615 29.1513 45.4261 29.1208 45.2889 29.12L45.2711 29.1555ZM38.16 29.1555L42.3734 22.9333C42.5075 22.7363 42.7107 22.5968 42.9429 22.5424C43.175 22.4881 43.419 22.5229 43.6267 22.64L43.8578 22.7733C44.0618 22.8944 44.2132 23.0873 44.2823 23.3143C44.3513 23.5412 44.3331 23.7858 44.2311 24L41.7334 29.1555H38.16ZM29.1556 22.5155C29.1556 23.2699 28.8559 23.9934 28.3225 24.5269C27.789 25.0603 27.0655 25.36 26.3111 25.36C26.3111 24.6056 26.6108 23.8821 27.1443 23.3487C27.6777 22.8152 28.4012 22.5155 29.1556 22.5155ZM23.4667 25.36C22.4667 25.3527 21.5093 24.9538 20.8 24.2489C20.4485 23.8993 20.1695 23.4838 19.9788 23.0262C19.7882 22.5686 19.6896 22.0779 19.6889 21.5822V20.6222H20.6222C21.6223 20.6295 22.5796 21.0284 23.2889 21.7333C23.6404 22.0829 23.9195 22.4984 24.1101 22.956C24.3008 23.4136 24.3993 23.9043 24.4 24.4V25.3511L23.4667 25.36Z" fill="#88AD99"></path></svg> 