<?xml version="1.0" encoding="UTF-8"?> <svg xmlns="http://www.w3.org/2000/svg" width="64" height="64" viewBox="0 0 64 64" fill="none"><rect width="64" height="64" rx="32" fill="#F7F7F7"></rect><path d="M39.1111 31.6978C39.1104 30.3782 38.7425 29.0848 38.0487 27.9624C37.3548 26.84 36.3623 25.9327 35.1822 25.3422L28.6044 22.0533C28.0575 21.7812 27.6053 21.3507 27.3066 20.8178H34.0266V18.7911H26.9155V17.7778H24.8889V19.3333C24.8866 20.2771 25.1485 21.2027 25.6449 22.0054C26.1413 22.8081 26.8524 23.4559 27.6978 23.8755L29.7244 24.8889L28.8355 25.3422C27.6508 25.9309 26.6537 26.8385 25.9565 27.9628C25.2593 29.0872 24.8896 30.3837 24.8889 31.7067V32.3022C24.8896 33.6218 25.2574 34.9152 25.9513 36.0376C26.6452 37.16 27.6377 38.0673 28.8178 38.6578L35.3955 41.9467C35.9412 42.2164 36.3933 42.6437 36.6933 43.1733H29.9644V45.2089H37.0755V46.2222H39.1111V44.6667C39.1143 43.7227 38.8529 42.7966 38.3564 41.9938C37.8599 41.1909 37.1482 40.5433 36.3022 40.1244L34.2755 39.1111L35.1644 38.6578C36.3492 38.0691 37.3462 37.1615 38.0434 36.0372C38.7406 34.9128 39.1104 33.6163 39.1111 32.2933V31.6978ZM31.8063 37.8766C29.3943 36.6729 26.9155 35.4358 26.9155 32.2933C26.8952 31.6968 26.9459 31.1 27.0666 30.5155H33.0133V28.4444H28.0978C28.9368 27.4392 30.2 26.8581 31.3845 26.3131C31.593 26.2172 31.7991 26.1224 32 26.0267C32.0614 26.0574 32.1229 26.0881 32.1844 26.1188C34.5989 27.324 37.0755 28.5602 37.0755 31.7067C37.0959 32.3031 37.0452 32.8999 36.9244 33.4844H30.9866V35.5555H35.9022C35.0632 36.5608 33.8 37.1419 32.6154 37.6868C32.4069 37.7827 32.2009 37.8775 32 37.9733C31.9355 37.9411 31.8709 37.9089 31.8063 37.8766Z" fill="#88AD99"></path><path d="M24.8889 46.2222H26.9244L26.8978 44.6311C26.8957 44.0638 27.0529 43.5072 27.3514 43.0248C27.65 42.5424 28.078 42.1534 28.5866 41.9022L29.3866 41.5022L28.4978 39.7244L27.6978 40.1244C26.8524 40.5441 26.1413 41.1919 25.6449 41.9946C25.1485 42.7973 24.8866 43.7229 24.8889 44.6667V46.2222Z" fill="#88AD99"></path><path d="M34.6133 22.4978L35.5022 24.2755L36.3022 23.8755C37.1482 23.4567 37.8599 22.8091 38.3564 22.0062C38.8529 21.2033 39.1143 20.2773 39.1111 19.3333V17.7778H37.1022V19.3689C37.1043 19.9362 36.9471 20.4928 36.6485 20.9752C36.35 21.4576 35.922 21.8465 35.4133 22.0978L34.6133 22.4978Z" fill="#88AD99"></path></svg> 