<?xml version="1.0" encoding="UTF-8"?> <svg xmlns="http://www.w3.org/2000/svg" width="42" height="42" viewBox="0 0 42 42" fill="none"><rect x="1" y="1" width="40" height="40" rx="20" fill="#F7F7F7"></rect><path d="M24.1042 18.75C24.1042 19.7005 23.7657 20.5143 23.0886 21.1914C22.4246 21.8555 21.6173 22.1875 20.6667 22.1875C19.7162 22.1875 18.9024 21.8555 18.2253 21.1914C17.5613 20.5143 17.2292 19.7005 17.2292 18.75C17.2292 17.7995 17.5613 16.9922 18.2253 16.3281C18.9024 15.651 19.7162 15.3125 20.6667 15.3125C21.6173 15.3125 22.4246 15.651 23.0886 16.3281C23.7657 16.9922 24.1042 17.7995 24.1042 18.75ZM22.2292 18.75C22.2292 18.3203 22.073 17.9557 21.7605 17.6562C21.461 17.3438 21.0964 17.1875 20.6667 17.1875C20.2371 17.1875 19.866 17.3438 19.5535 17.6562C19.254 17.9557 19.1042 18.3203 19.1042 18.75C19.1042 19.1797 19.254 19.5508 19.5535 19.8633C19.866 20.1628 20.2371 20.3125 20.6667 20.3125C21.0964 20.3125 21.461 20.1628 21.7605 19.8633C22.073 19.5508 22.2292 19.1797 22.2292 18.75ZM27.2292 19.0625C27.2292 19.8698 27.0014 20.7943 26.5457 21.8359C26.0899 22.8776 25.5496 23.9128 24.9246 24.9414C24.2996 25.9701 23.655 26.9336 22.991 27.832C22.3269 28.7305 21.7865 29.4466 21.3699 29.9805C21.3178 30.0326 21.2592 30.0781 21.1941 30.1172C21.142 30.1693 21.0834 30.2083 21.0183 30.2344C20.9662 30.2604 20.9076 30.2799 20.8425 30.293C20.7904 30.306 20.7319 30.3125 20.6667 30.3125C20.6016 30.3125 20.5365 30.306 20.4714 30.293C20.4194 30.2799 20.3673 30.2604 20.3152 30.2344C20.2501 30.2083 20.185 30.1693 20.1199 30.1172C20.0678 30.0781 20.0157 30.0326 19.9636 29.9805C19.547 29.4466 19.0066 28.7305 18.3425 27.832C17.6785 26.9336 17.0339 25.9701 16.4089 24.9414C15.7839 23.9128 15.2436 22.8776 14.7878 21.8359C14.3321 20.7943 14.1042 19.8698 14.1042 19.0625C14.1042 18.0469 14.2735 17.1159 14.6121 16.2695C14.9376 15.4232 15.3933 14.7005 15.9792 14.1016C16.5652 13.4896 17.2618 13.0208 18.0691 12.6953C18.8634 12.3568 19.7292 12.1875 20.6667 12.1875C21.6042 12.1875 22.4766 12.3568 23.2839 12.6953C24.0782 13.0339 24.7683 13.5091 25.3542 14.1211C25.9402 14.7201 26.4024 15.4362 26.741 16.2695C27.0665 17.1159 27.2292 18.0469 27.2292 19.0625ZM25.3542 19.0625C25.3542 18.2943 25.2371 17.5977 25.0027 16.9727C24.7553 16.3607 24.4233 15.8398 24.0066 15.4102C23.5899 14.9805 23.0951 14.6484 22.5222 14.4141C21.9493 14.1797 21.3308 14.0625 20.6667 14.0625C20.0027 14.0625 19.3842 14.1797 18.8113 14.4141C18.2384 14.6484 17.7436 14.9805 17.3269 15.4102C16.9102 15.8398 16.5782 16.3607 16.3308 16.9727C16.0964 17.5977 15.9792 18.2943 15.9792 19.0625C15.9792 19.2839 16.0183 19.5703 16.0964 19.9219C16.1876 20.2604 16.3243 20.6576 16.5066 21.1133C16.7019 21.569 16.9233 22.0378 17.1707 22.5195C17.4311 22.9883 17.711 23.4701 18.0105 23.9648C18.4402 24.681 18.8894 25.3711 19.3582 26.0352C19.8399 26.6992 20.2761 27.2917 20.6667 27.8125C21.0574 27.2917 21.4871 26.6992 21.9558 26.0352C22.4376 25.3711 22.8933 24.681 23.323 23.9648C23.6225 23.4701 23.8959 22.9883 24.1433 22.5195C24.4037 22.0378 24.6316 21.569 24.8269 21.1133C25.0092 20.6576 25.1394 20.2604 25.2175 19.9219C25.3087 19.5703 25.3542 19.2839 25.3542 19.0625Z" fill="#88AD99"></path><rect x="1" y="1" width="40" height="40" rx="20" stroke="#EAEAEA" stroke-width="2"></rect></svg> 