<?xml version="1.0" encoding="UTF-8"?> <svg xmlns="http://www.w3.org/2000/svg" width="64" height="64" viewBox="0 0 64 64" fill="none"><rect width="64" height="64" rx="32" fill="#F7F7F7"></rect><path d="M43.8399 21.2311C42.986 20.4372 41.9596 19.8522 40.8414 19.5222C39.7232 19.1921 38.5436 19.1259 37.3955 19.3289C36.3126 19.5179 35.278 19.9201 34.3518 20.5122C33.4256 21.1042 32.6262 21.8743 31.9999 22.7778C31.3712 21.8747 30.57 21.105 29.6424 20.5131C28.7149 19.9212 27.6793 19.5187 26.5955 19.3289C25.4487 19.1281 24.2711 19.1953 23.1546 19.5253C22.0382 19.8553 21.0132 20.4391 20.1599 21.2311C17.271 23.96 17.0044 29.1689 19.3777 34.44H24.4088C24.5991 34.4445 24.7863 34.3907 24.9451 34.2859C25.104 34.181 25.227 34.0301 25.2977 33.8533L26.2399 31.5066L28.2755 37.5866C28.3358 37.775 28.4543 37.9394 28.6141 38.056C28.7739 38.1727 28.9666 38.2355 29.1644 38.2355C29.3539 38.2481 29.5424 38.1997 29.7024 38.0973C29.8623 37.9949 29.9853 37.844 30.0533 37.6666L31.9999 33L32.4355 33.8889C32.514 34.0566 32.6401 34.1975 32.7982 34.2939C32.9563 34.3903 33.1393 34.4381 33.3244 34.4311H36.7377V32.5378H33.9288L32.8888 30.2444C32.8025 30.0822 32.6748 29.9458 32.5187 29.849C32.3626 29.7522 32.1836 29.6985 31.9999 29.6933C31.8114 29.6917 31.6266 29.7456 31.4685 29.8484C31.3104 29.9511 31.1861 30.0981 31.111 30.2711L29.2444 34.6178L27.1999 28.4489C27.1384 28.2612 27.0196 28.0976 26.8601 27.9812C26.7006 27.8647 26.5085 27.8013 26.311 27.8C26.1194 27.7887 25.9292 27.8397 25.769 27.9454C25.6088 28.0512 25.4871 28.206 25.4221 28.3866L23.7688 32.5378H20.6488C19.0933 28.4222 19.3599 24.6089 21.4666 22.6C22.1102 22.0153 22.8786 21.585 23.7134 21.3417C24.5482 21.0983 25.4274 21.0484 26.2844 21.1955C27.3381 21.4025 28.3282 21.8548 29.1745 22.5158C30.0208 23.1767 30.6994 24.0278 31.1555 25C31.2365 25.1525 31.3574 25.28 31.5054 25.369C31.6534 25.458 31.8228 25.505 31.9955 25.505C32.1681 25.505 32.3376 25.458 32.4855 25.369C32.6335 25.28 32.7545 25.1525 32.8355 25C33.2904 24.0261 33.9686 23.1733 34.815 22.5107C35.6613 21.8482 36.652 21.3945 37.7066 21.1866C38.567 21.0398 39.4496 21.0908 40.2874 21.3357C41.1252 21.5805 41.8962 22.0129 42.5421 22.6C45.0221 24.9555 44.9421 29.8444 42.3466 34.7778C40.3021 38.9378 34.7733 42.9022 32.0088 44.7066C29.591 43.1333 25.0577 39.9066 22.5866 36.3333H20.3377C22.8533 40.7244 28.3377 44.6266 31.4933 46.6355C31.646 46.7281 31.8213 46.777 31.9999 46.777C32.1786 46.777 32.3538 46.7281 32.5066 46.6355C35.831 44.5555 41.7777 40.3066 44.0266 35.6666C47.0221 29.9689 46.9421 24.1733 43.8399 21.2311Z" fill="#88AD99"></path></svg> 