<?xml version="1.0" encoding="UTF-8"?> <svg xmlns="http://www.w3.org/2000/svg" width="42" height="42" viewBox="0 0 42 42" fill="none"><rect width="42" height="42" rx="21" fill="#E3E8F1"></rect><path d="M27.0038 25.6983C27.0757 25.6263 27.1337 25.5682 28.1497 24.5523C28.7428 23.9603 29.637 24.8561 29.0456 25.4482L26.1639 28.3299C25.9161 28.5779 25.5144 28.5763 25.268 28.3299L23.6846 26.7466C23.0961 26.1581 23.9726 25.2428 24.6063 25.8763C24.8629 26.133 24.9213 26.1915 24.9891 26.2594C25.0751 26.3455 25.1762 26.4467 25.716 26.9865C26.843 25.8594 26.9307 25.7716 27.0038 25.6983Z" fill="#555555"></path><path fill-rule="evenodd" clip-rule="evenodd" d="M27.8052 11.6334V20.7725C30.2139 21.3902 32 23.58 32 26.1792C32 29.256 29.4966 31.7594 26.4198 31.7594C23.4537 31.7594 21.0208 29.4333 20.8489 26.5097H11.6333C11.2833 26.5097 11 26.2261 11 25.8764V11.6333C11 11.2833 11.2833 11 11.6333 11H27.1718C27.5218 11 27.8052 11.2833 27.8052 11.6334ZM22.1059 26.1791C22.1059 28.5561 24.0393 30.4927 26.4198 30.4927C28.7982 30.4927 30.7333 28.5576 30.7333 26.1791C30.7333 23.8416 28.865 21.9308 26.5385 21.8669C24.1586 21.7895 22.1059 23.7228 22.1059 26.1791ZM16.6548 12.2667H12.2667L12.2667 25.243H20.9177C21.3718 22.5639 23.7374 20.5401 26.5385 20.5997V12.2667H22.1501V17.803C22.1501 18.3067 21.5902 18.6081 21.1697 18.3328L19.4027 17.1756L17.6353 18.3328C17.214 18.6089 16.6548 18.3048 16.6548 17.803V12.2667ZM19.7495 15.8885L20.8835 16.6313V12.2667H17.9216V16.6313L19.0557 15.8885C19.1588 15.821 19.2794 15.7851 19.4026 15.7851C19.5258 15.7851 19.6464 15.821 19.7495 15.8885Z" fill="#555555"></path></svg> 