<?xml version="1.0" encoding="UTF-8"?> <svg xmlns="http://www.w3.org/2000/svg" width="42" height="42" viewBox="0 0 42 42" fill="none"><rect width="42" height="42" rx="21" fill="#F1ECEB"></rect><path d="M26.7716 16.6321C26.8908 16.8058 27.0838 16.8995 27.28 16.8995C27.404 16.8996 27.525 16.8622 27.6272 16.7921C27.9079 16.5996 27.9793 16.2167 27.7873 15.9361C27.5329 15.5643 27.1917 15.26 26.7931 15.0498C26.3946 14.8396 25.9508 14.7297 25.5003 14.7297C24.7604 14.7297 24.065 15.0176 23.5417 15.5412C23.3014 15.7815 23.3014 16.171 23.5417 16.4115C23.782 16.6518 24.1715 16.6518 24.412 16.4115C24.703 16.1205 25.0891 15.9607 25.5003 15.9607C26.0085 15.9607 26.4836 16.2113 26.7716 16.6321Z" fill="#555555"></path><path fill-rule="evenodd" clip-rule="evenodd" d="M25.634 12.7493C26.8672 12.7493 28.0266 13.2295 28.8981 14.1016C29.7699 14.9732 30.25 16.1325 30.25 17.3654C30.25 18.5982 29.7699 19.7576 28.8981 20.6297L20.6294 28.8984C19.7576 29.7705 18.5984 30.2508 17.3653 30.2508C16.1322 30.2508 14.9728 29.7705 14.1013 28.8984C13.2295 28.0269 12.7492 26.8675 12.7492 25.6346C12.7492 24.4018 13.2295 23.2424 14.1012 22.3703L22.3698 14.1016C23.2418 13.2295 24.4008 12.7493 25.634 12.7493ZM17.3653 29.0199C18.2693 29.0199 19.1195 28.6675 19.759 28.0281L23.4583 24.3293L18.6708 19.5413L14.9716 23.2408C14.3324 23.8802 13.9802 24.7308 13.9802 25.6347C13.9802 26.5387 14.3322 27.3885 14.9716 28.0281C15.6111 28.6676 16.461 29.0199 17.3653 29.0199ZM24.3286 23.4589L28.0278 19.7594C28.667 19.1198 29.0191 18.2692 29.0191 17.3653C29.0191 16.4613 28.6671 15.6115 28.0276 14.9719C27.3882 14.3323 26.5383 13.9801 25.634 13.9801C24.7299 13.9801 23.8798 14.3325 23.2404 14.9719L19.5411 18.6709L24.3286 23.4589Z" fill="#555555"></path></svg> 