<?xml version="1.0" encoding="UTF-8"?> <svg xmlns="http://www.w3.org/2000/svg" width="64" height="64" viewBox="0 0 64 64" fill="none"><rect width="64" height="64" rx="32" fill="#F7F7F7"></rect><path d="M40.5333 45.2711H42.4267C42.4267 44.266 42.028 43.3019 41.3181 42.5904C40.6082 41.8788 39.6451 41.4779 38.64 41.4755H22.5156C22.142 41.4755 21.7722 41.402 21.427 41.259C21.0819 41.1161 20.7684 40.9066 20.5042 40.6424C20.2401 40.3783 20.0306 40.0647 19.8876 39.7196C19.7447 39.3745 19.6711 39.0046 19.6711 38.6311C19.6711 38.2576 19.7447 37.8877 19.8876 37.5426C20.0306 37.1975 20.2401 36.8839 20.5042 36.6198C20.7684 36.3556 21.0819 36.1461 21.427 36.0032C21.7722 35.8602 22.142 35.7867 22.5156 35.7867H40.5333V33.8933H22.5156C21.7612 33.8933 21.0377 33.5936 20.5042 33.0602C19.9708 32.5268 19.6711 31.8033 19.6711 31.0489C19.6711 30.2945 19.9708 29.571 20.5042 29.0376C21.0377 28.5041 21.7612 28.2044 22.5156 28.2044H40.5333V26.3111H24.4178C23.1604 26.3111 21.9544 25.8122 21.0645 24.924C20.1746 24.0357 19.6735 22.8307 19.6711 21.5733V18.7289H17.7778V21.5733C17.7753 22.5916 18.0073 23.5967 18.4559 24.5108C18.9045 25.4249 19.5575 26.2234 20.3645 26.8444C19.6505 27.2111 19.0414 27.7531 18.5943 28.4197C18.1472 29.0862 17.8768 29.8554 17.8084 30.655C17.74 31.4547 17.8758 32.2586 18.2032 32.9914C18.5306 33.7242 19.0387 34.3618 19.68 34.8444C19.0896 35.2855 18.6102 35.8583 18.28 36.5172C17.9497 37.1761 17.7778 37.903 17.7778 38.64C17.7917 39.8922 18.2953 41.0893 19.1808 41.9748C20.0663 42.8603 21.2633 43.3639 22.5156 43.3778H38.64C39.1414 43.3801 39.6217 43.5803 39.9762 43.9349C40.3308 44.2895 40.531 44.7697 40.5333 45.2711Z" fill="#88AD99"></path><path d="M44.3289 45.2711H46.2223C46.2159 44.1127 45.9441 42.9713 45.4279 41.9343C44.9118 40.8973 44.1648 39.9923 43.2445 39.2889C44.1273 38.9292 44.8824 38.3139 45.413 37.522C45.9436 36.7301 46.2254 35.7977 46.2223 34.8444C46.2233 34.1082 46.0527 33.3818 45.7241 32.7229C45.3954 32.0641 44.9177 31.4909 44.3289 31.0489C45.1268 30.4528 45.7165 29.6205 46.0143 28.6702C46.3122 27.7199 46.303 26.6999 45.988 25.7551C45.6731 24.8103 45.0685 23.9888 44.26 23.4072C43.4515 22.8257 42.4804 22.5137 41.4845 22.5155H26.3112C25.9376 22.5155 25.5677 22.442 25.2226 22.299C24.8775 22.1561 24.564 21.9466 24.2998 21.6824C23.7664 21.149 23.4667 20.4255 23.4667 19.6711V18.7289H21.5734V19.6711C21.5722 20.294 21.6939 20.9111 21.9315 21.4869C22.169 22.0627 22.5178 22.5861 22.9579 23.027C23.3979 23.4679 23.9206 23.8176 24.496 24.0563C25.0714 24.2949 25.6882 24.4178 26.3112 24.4178H41.4845C42.2389 24.4178 42.9624 24.7175 43.4958 25.2509C44.0292 25.7843 44.3289 26.5078 44.3289 27.2622C44.3289 28.0166 44.0292 28.7401 43.4958 29.2735C42.9624 29.807 42.2389 30.1067 41.4845 30.1067H23.4667V32H41.4845C42.2389 32 42.9624 32.2997 43.4958 32.8331C44.0292 33.3665 44.3289 34.09 44.3289 34.8444C44.3289 35.5988 44.0292 36.3223 43.4958 36.8558C42.9624 37.3892 42.2389 37.6889 41.4845 37.6889H23.4667V39.5822H38.64C40.1481 39.5846 41.5937 40.1847 42.6601 41.251C43.7265 42.3174 44.3266 43.763 44.3289 45.2711Z" fill="#88AD99"></path></svg> 