<?xml version="1.0" encoding="UTF-8"?> <svg xmlns="http://www.w3.org/2000/svg" width="64" height="64" viewBox="0 0 64 64" fill="none"><rect width="64" height="64" rx="32" fill="#F7F7F7"></rect><path d="M35.9733 19.0489C36.0629 18.8307 36.0681 18.5869 35.988 18.365C35.908 18.1432 35.7483 17.9589 35.5401 17.8482C35.3318 17.7374 35.0898 17.7079 34.861 17.7656C34.6323 17.8232 34.4331 17.9638 34.3022 18.16L33.2265 19.7425C30.4088 23.8046 27.9733 27.3156 27.9733 30.8089C27.9733 31.878 28.398 32.9033 29.154 33.6593C29.91 34.4153 30.9353 34.84 32.0044 34.84C33.0736 34.84 34.0989 34.4153 34.8549 33.6593C35.6108 32.9033 36.0356 31.878 36.0356 30.8089C36.0018 29.6364 35.8409 28.4711 35.5555 27.3333C34.7939 24.5995 34.9405 21.6922 35.9733 19.0489ZM30.4915 32.3263C30.0914 31.9262 29.8667 31.3836 29.8667 30.8178C29.8667 28.5244 31.2889 25.9911 33.1911 23.1556C33.1531 24.6979 33.3265 26.2381 33.7067 27.7333C33.9625 28.7428 34.1085 29.7769 34.1422 30.8178C34.1422 31.0987 34.0867 31.3768 33.979 31.6362C33.8712 31.8956 33.7133 32.1312 33.5142 32.3294C33.3152 32.5276 33.079 32.6846 32.8191 32.7913C32.5593 32.898 32.2809 32.9523 32 32.9511C31.4342 32.9511 30.8916 32.7264 30.4915 32.3263Z" fill="#88AD99"></path><path d="M18.7289 46.2222H45.2711V44.3289H18.7289V46.2222Z" fill="#88AD99"></path><path d="M31.36 37.6889H32.64C34.0088 37.6847 35.3345 37.2098 36.3946 36.3438C37.4548 35.4779 38.1848 34.2737 38.4622 32.9333H45.2711V31.04H38.0711C37.2 31.04 36.7467 31.7511 36.6133 32.5245C36.4288 33.443 35.9325 34.2695 35.2084 34.8641C34.4842 35.4586 33.5769 35.7845 32.64 35.7867H31.36C30.4243 35.7849 29.518 35.4603 28.794 34.8675C28.0701 34.2747 27.573 33.4503 27.3867 32.5333C27.3437 32.133 27.157 31.7619 26.8611 31.4889C26.5652 31.2159 26.1802 31.0595 25.7778 31.0489H18.7289V32.9511H25.5378C25.8188 34.2882 26.5503 35.4884 27.6101 36.3507C28.6699 37.2131 29.9937 37.6855 31.36 37.6889Z" fill="#88AD99"></path><path d="M33.9022 40.5333H30.1067V42.4267H33.9022V40.5333Z" fill="#88AD99"></path><path d="M45.2711 39.5822H42.4267V41.4756H45.2711V39.5822Z" fill="#88AD99"></path><path d="M21.5733 39.5822H18.7289V41.4756H21.5733V39.5822Z" fill="#88AD99"></path><path d="M39.5822 38.64H36.7378V40.5333H39.5822V38.64Z" fill="#88AD99"></path><path d="M27.2622 38.64H24.4178V40.5333H27.2622V38.64Z" fill="#88AD99"></path><path d="M45.2711 34.8445H42.4267V36.7378H45.2711V34.8445Z" fill="#88AD99"></path><path d="M21.5733 34.8445H18.7289V36.7378H21.5733V34.8445Z" fill="#88AD99"></path></svg> 