<?xml version="1.0" encoding="UTF-8"?> <svg xmlns="http://www.w3.org/2000/svg" width="130" height="32" viewBox="0 0 130 32" fill="none"><path d="M34.0084 11.3401L47.0985 11.3401L47.0985 13.795L41.9444 13.795L41.9444 27.6334L39.1193 27.6334L39.1193 13.795L33.9868 13.795L34.0084 11.3401ZM46.5378 15.8371L48.9531 15.8371L48.9531 18.1181L48.9962 18.1181C49.0825 17.7923 49.2334 17.4881 49.4491 17.184C49.6647 16.8799 49.9235 16.5974 50.247 16.3585C50.5489 16.0978 50.8939 15.9023 51.2821 15.7502C51.6487 15.5981 52.0369 15.5112 52.4251 15.5112C52.727 15.5112 52.9426 15.5329 53.0505 15.5329C53.1583 15.5547 53.2877 15.5764 53.3955 15.5764L53.3955 18.0747C53.223 18.0313 53.0289 18.0095 52.8348 17.9878C52.6407 17.9661 52.4682 17.9444 52.2741 17.9444C51.8428 17.9444 51.4331 18.0312 51.0449 18.205C50.6567 18.3788 50.3332 18.6395 50.0313 18.9654C49.751 19.313 49.5138 19.7258 49.3412 20.2254C49.1687 20.7251 49.0825 21.3116 49.0825 21.9634L49.0825 27.5682L46.4946 27.5682L46.5378 15.8371ZM65.2564 27.6334L62.7117 27.6334L62.7117 25.9824L62.6686 25.9824C62.3451 26.5907 61.8706 27.0469 61.2452 27.4162C60.6199 27.7855 59.9729 27.9593 59.3259 27.9593C57.7948 27.9593 56.6734 27.59 55.9833 26.8079C55.2932 26.0475 54.9482 24.8744 54.9482 23.332L54.9482 15.8371L57.536 15.8371L57.536 23.0713C57.536 24.1141 57.7301 24.8527 58.1399 25.2655C58.528 25.7 59.0887 25.9172 59.8004 25.9172C60.3395 25.9172 60.7924 25.8303 61.159 25.6565C61.5256 25.4827 61.8275 25.2655 62.0432 24.983C62.2804 24.7006 62.4313 24.353 62.5392 23.962C62.647 23.571 62.6901 23.1365 62.6901 22.6803L62.6901 15.8371L65.2779 15.8371L65.2779 27.6334L65.2564 27.6334ZM69.6557 23.8534C69.7419 24.6137 70.0223 25.1351 70.5183 25.461C71.0143 25.7651 71.6181 25.9172 72.3082 25.9172C72.5454 25.9172 72.8258 25.8955 73.1277 25.852C73.4296 25.8086 73.7315 25.7434 73.9903 25.6348C74.2706 25.5262 74.4863 25.3741 74.6588 25.1568C74.8313 24.9396 74.9176 24.6789 74.896 24.353C74.8745 24.0272 74.7666 23.7448 74.5294 23.5275C74.2922 23.3103 74.0119 23.1582 73.6668 23.0061C73.3218 22.8758 72.912 22.7672 72.4592 22.6803C72.0063 22.5934 71.5534 22.4847 71.079 22.3761C70.6045 22.2675 70.1301 22.1372 69.6772 21.9851C69.2244 21.833 68.8362 21.6375 68.4696 21.3551C68.1245 21.0944 67.8226 20.7685 67.6285 20.3558C67.4129 19.943 67.3051 19.4651 67.3051 18.8568C67.3051 18.205 67.456 17.6837 67.7795 17.2492C68.0814 16.8147 68.4912 16.4671 68.9656 16.2064C69.44 15.9457 69.9792 15.7502 70.5614 15.6416C71.1437 15.5329 71.7044 15.4895 72.2219 15.4895C72.8258 15.4895 73.408 15.5547 73.9472 15.685C74.4863 15.8154 75.0038 16.0109 75.4352 16.315C75.888 16.5974 76.2546 16.9885 76.535 17.4447C76.8369 17.9009 77.0094 18.4657 77.0957 19.1175L74.4 19.1175C74.2706 18.4875 73.9903 18.0747 73.559 17.8575C73.1061 17.6402 72.6101 17.5316 72.0279 17.5316C71.8553 17.5316 71.6181 17.5533 71.3809 17.575C71.1221 17.6185 70.9065 17.6619 70.6692 17.7488C70.4536 17.8357 70.2595 17.9661 70.1085 18.1181C69.9576 18.2702 69.8713 18.4875 69.8713 18.7482C69.8713 19.074 69.9792 19.313 70.1948 19.5085C70.4105 19.704 70.6908 19.8561 71.0574 20.0082C71.4025 20.1385 71.8122 20.2471 72.2651 20.334C72.7179 20.4209 73.1924 20.5296 73.6668 20.6382C74.1412 20.7468 74.5941 20.8771 75.047 21.0292C75.4998 21.1813 75.9096 21.3768 76.2546 21.6592C76.5997 21.9199 76.9016 22.2458 77.1172 22.6368C77.3329 23.0279 77.4407 23.5275 77.4407 24.0923C77.4407 24.7875 77.2898 25.3741 76.9663 25.8737C76.6428 26.3517 76.2331 26.7644 75.7371 27.0686C75.2411 27.3727 74.6588 27.59 74.055 27.742C73.4296 27.8724 72.8258 27.9593 72.2219 27.9593C71.4887 27.9593 70.7986 27.8724 70.1732 27.6986C69.5479 27.5248 68.9872 27.2641 68.5343 26.9382C68.0814 26.5907 67.7148 26.1779 67.456 25.6565C67.1972 25.1568 67.0463 24.5486 67.0247 23.8317L69.6341 23.8317L69.6341 23.8534L69.6557 23.8534ZM78.1739 15.8371L80.1364 15.8371L80.1364 12.2743L82.7242 12.2743L82.7242 15.8154L85.0532 15.8154L85.0532 17.7488L82.7242 17.7488L82.7242 24.0489C82.7242 24.3313 82.7458 24.5486 82.7673 24.7658C82.7889 24.9613 82.8536 25.1351 82.9183 25.2655C83.0045 25.3958 83.1339 25.5044 83.2849 25.5696C83.4574 25.6348 83.6731 25.6782 83.975 25.6782C84.1475 25.6782 84.3416 25.6782 84.5141 25.6565C84.6866 25.6348 84.8807 25.6131 85.0532 25.5696L85.0532 27.59C84.7729 27.6334 84.4925 27.6551 84.2122 27.6769C83.9318 27.7203 83.6731 27.7203 83.3712 27.7203C82.6811 27.7203 82.1419 27.6551 81.7322 27.5248C81.3225 27.3945 80.999 27.1989 80.7618 26.96C80.5245 26.6993 80.3736 26.3951 80.2873 26.0258C80.2011 25.6565 80.1579 25.2003 80.1364 24.7224L80.1364 17.7706L78.1739 17.7706L78.1739 15.7936L78.1739 15.8371ZM86.8647 15.8371L89.3016 15.8371L89.3016 17.4447L89.3447 17.4447C89.7113 16.7495 90.2073 16.2716 90.8543 15.9674C91.5012 15.6633 92.1913 15.5112 92.9677 15.5112C93.895 15.5112 94.6929 15.6633 95.383 16.0109C96.0731 16.3367 96.6338 16.7712 97.0866 17.3578C97.5395 17.9226 97.8845 18.5961 98.1002 19.3564C98.3158 20.1168 98.4452 20.9423 98.4452 21.7896C98.4452 22.5934 98.3374 23.3537 98.1433 24.0923C97.9277 24.831 97.6258 25.5044 97.216 26.0693C96.8063 26.6341 96.2887 27.0903 95.6418 27.4379C94.9948 27.7855 94.2616 27.9593 93.399 27.9593C93.0324 27.9593 92.6442 27.9158 92.2776 27.8507C91.911 27.7855 91.5444 27.6769 91.1993 27.5248C90.8543 27.3727 90.5308 27.1772 90.2505 26.9382C89.9485 26.6993 89.7113 26.4169 89.5172 26.1127L89.4741 26.1127L89.4741 32L86.8863 32L86.8863 15.8371L86.8647 15.8371ZM95.9005 21.7461C95.9005 21.2247 95.8358 20.7033 95.6849 20.2037C95.5555 19.704 95.3398 19.2695 95.0595 18.8785C94.7791 18.4875 94.4341 18.1833 94.0459 17.9444C93.6362 17.7054 93.1618 17.5968 92.6442 17.5968C91.5659 17.5968 90.7465 17.9661 90.1858 18.7264C89.6466 19.4868 89.3663 20.5078 89.3663 21.7678C89.3663 22.3761 89.431 22.9192 89.5819 23.4189C89.7329 23.9185 89.927 24.353 90.2289 24.7224C90.5092 25.0917 90.8543 25.3741 91.264 25.5913C91.6738 25.8086 92.1266 25.9172 92.6658 25.9172C93.2696 25.9172 93.744 25.7868 94.1538 25.5479C94.5635 25.3089 94.887 24.983 95.1673 24.6137C95.4261 24.2227 95.6202 23.7882 95.728 23.2885C95.8358 22.7672 95.9005 22.2675 95.9005 21.7461ZM100.451 11.3401L103.039 11.3401L103.039 13.795L100.451 13.795L100.451 11.3401ZM100.451 15.8371L103.039 15.8371L103.039 27.6334L100.451 27.6334L100.451 15.8371ZM105.346 11.3401L107.934 11.3401L107.934 27.6334L105.346 27.6334L105.346 11.3401ZM115.827 27.9593C114.899 27.9593 114.058 27.8072 113.325 27.4813C112.592 27.1555 111.988 26.7427 111.471 26.1996C110.975 25.6565 110.586 24.983 110.328 24.2227C110.069 23.4623 109.918 22.6151 109.918 21.7244C109.918 20.8337 110.047 20.0082 110.328 19.2478C110.586 18.4875 110.975 17.8357 111.471 17.2709C111.967 16.7278 112.592 16.2933 113.325 15.9892C114.058 15.685 114.899 15.5112 115.827 15.5112C116.754 15.5112 117.595 15.6633 118.328 15.9892C119.062 16.2933 119.665 16.7278 120.183 17.2709C120.679 17.814 121.067 18.4875 121.326 19.2478C121.585 20.0082 121.736 20.8337 121.736 21.7244C121.736 22.6368 121.606 23.4623 121.326 24.2227C121.046 24.983 120.679 25.6348 120.183 26.1996C119.687 26.7427 119.062 27.1772 118.328 27.4813C117.595 27.7855 116.776 27.9593 115.827 27.9593ZM115.827 25.8955C116.387 25.8955 116.905 25.7651 117.315 25.5262C117.746 25.2872 118.07 24.9613 118.35 24.5703C118.63 24.1792 118.824 23.723 118.954 23.2451C119.083 22.7454 119.148 22.2458 119.148 21.7244C119.148 21.2247 119.083 20.7251 118.954 20.2254C118.824 19.7257 118.63 19.2913 118.35 18.9002C118.07 18.5092 117.725 18.205 117.315 17.9661C116.883 17.7271 116.387 17.5968 115.827 17.5968C115.266 17.5968 114.749 17.7271 114.339 17.9661C113.907 18.205 113.584 18.5309 113.304 18.9002C113.023 19.2913 112.829 19.7257 112.7 20.2254C112.57 20.7251 112.506 21.2247 112.506 21.7244C112.506 22.2458 112.57 22.7454 112.7 23.2451C112.829 23.7448 113.023 24.1792 113.304 24.5703C113.584 24.9613 113.929 25.2872 114.339 25.5262C114.77 25.7868 115.266 25.8955 115.827 25.8955ZM122.512 15.8371L124.474 15.8371L124.474 12.2743L127.062 12.2743L127.062 15.8154L129.391 15.8154L129.391 17.7488L127.062 17.7488L127.062 24.0489C127.062 24.3313 127.084 24.5486 127.105 24.7658C127.127 24.9613 127.192 25.1351 127.256 25.2655C127.343 25.3958 127.472 25.5044 127.623 25.5696C127.795 25.6348 128.011 25.6782 128.313 25.6782C128.486 25.6782 128.68 25.6782 128.852 25.6565C129.025 25.6348 129.219 25.6131 129.391 25.5696L129.391 27.59C129.111 27.6334 128.831 27.6551 128.55 27.6769C128.27 27.7203 128.011 27.7203 127.709 27.7203C127.019 27.7203 126.48 27.6551 126.07 27.5248C125.661 27.3945 125.337 27.1989 125.1 26.96C124.863 26.6993 124.712 26.3951 124.625 26.0258C124.539 25.6565 124.496 25.2003 124.474 24.7223L124.474 17.7705L122.512 17.7705L122.512 15.7936L122.512 15.8371Z" fill="#333333"></path><path d="M30.9892 11.3401L19.1499 11.3401L15.5054 -1.35552e-06L11.8393 11.3401L9.89486e-07 11.3184L9.57496 18.3354L5.90887 29.6755L15.4838 22.6585L25.0588 29.6755L21.4143 18.3354L30.9892 11.3401Z" fill="#00B67A"></path><path d="M22.2337 20.8989L21.4142 18.3354L15.5054 22.6585L22.2337 20.8989Z" fill="#005128"></path></svg> 