<?xml version="1.0" encoding="UTF-8"?> <svg xmlns="http://www.w3.org/2000/svg" width="42" height="42" viewBox="0 0 42 42" fill="none"><rect width="42" height="42" rx="21" fill="#E7EEE7"></rect><path fill-rule="evenodd" clip-rule="evenodd" d="M17.1407 28.626C18.4222 28.626 19.5034 27.7524 19.82 26.5694H23.9362C24.2528 27.7524 25.334 28.626 26.6155 28.626C27.8973 28.626 28.9784 27.7523 29.2949 26.5692H31.3067C31.6896 26.5692 32 26.2589 32 25.876V21.3698C32 21.2158 31.9487 21.0661 31.8544 20.9445L30.5616 19.2794L30.5628 19.2788L28.483 15.1423C28.4252 15.0275 28.3367 14.931 28.2273 14.8636C28.1179 14.7962 27.9919 14.7605 27.8634 14.7605H24.9055V14.0672C24.9055 13.6843 24.5951 13.374 24.2122 13.374H12.6576C12.2746 13.374 11.9643 13.6843 11.9643 14.0672C11.9643 14.4501 12.2747 14.7605 12.6576 14.7605H23.5189V19.6134C23.5189 19.9963 23.8293 20.3067 24.2122 20.3067H29.6038L30.6134 21.6072V25.1827H29.3068C29.0062 23.9763 27.9136 23.0798 26.6155 23.0798C25.3174 23.0798 24.2247 23.9764 23.9242 25.1828H19.832C19.5315 23.9764 18.4389 23.0798 17.1407 23.0798C15.8426 23.0798 14.7499 23.9764 14.4495 25.1828H12.6576C12.2746 25.1828 11.9643 25.4932 11.9643 25.8761C11.9643 26.259 12.2747 26.5693 12.6576 26.5693H14.4614C14.778 27.7523 15.8592 28.626 17.1407 28.626ZM27.4359 16.1471L28.8301 18.9202H24.9055V16.1471H27.4359ZM26.6155 27.2395C25.8508 27.2395 25.229 26.6176 25.229 25.8529C25.229 25.0883 25.8508 24.4664 26.6155 24.4664C27.3802 24.4664 28.0021 25.0883 28.0021 25.8529C28.0021 26.6176 27.3802 27.2395 26.6155 27.2395ZM17.1407 27.2395C16.3761 27.2395 15.7542 26.6176 15.7542 25.8529C15.7542 25.0883 16.3761 24.4664 17.1407 24.4664C17.9052 24.4664 18.5273 25.0883 18.5273 25.8529C18.5273 26.6176 17.9054 27.2395 17.1407 27.2395Z" fill="#555555"></path><path d="M15.0147 21.6702H11.8256C11.4427 21.6702 11.1324 21.9806 11.1324 22.3635C11.1324 22.7464 11.4427 23.0567 11.8256 23.0567H15.0147C15.3976 23.0567 15.7079 22.7463 15.7079 22.3635C15.708 21.9806 15.3976 21.6702 15.0147 21.6702Z" fill="#555555"></path><path d="M16.6092 18.9433H10.6933C10.3104 18.9433 10 19.2536 10 19.6366C10 20.0195 10.3104 20.3298 10.6933 20.3298H16.6092C16.9922 20.3298 17.3025 20.0195 17.3025 19.6366C17.3025 19.2537 16.9922 18.9433 16.6092 18.9433Z" fill="#555555"></path><path d="M11.8256 16.2164H17.7416C18.1246 16.2164 18.4349 16.5268 18.4349 16.9097C18.4349 17.2926 18.1246 17.6029 17.7416 17.6029H11.8256C11.4427 17.6029 11.1324 17.2926 11.1324 16.9097C11.1324 16.5268 11.4427 16.2164 11.8256 16.2164Z" fill="#555555"></path></svg> 